<svg id="Layer_1" data-name="Layer 1" xmlns="http://www.w3.org/2000/svg" viewBox="0 0 52.51 52.51"><title>404_icon</title><g id="g3"><g id="electriccar"><circle cx="26.25" cy="26.25" r="26.25" style="fill:#4b711c"/><circle cx="21.83" cy="34.88" r="3.34" style="fill:none;stroke:#fcfcfc;stroke-miterlimit:10"/><circle cx="21.83" cy="34.88" r="2.01" style="fill:none"/><circle cx="38.01" cy="34.88" r="3.34" style="fill:none;stroke:#fcfcfc;stroke-miterlimit:10"/><circle cx="38.01" cy="34.88" r="2.01" style="fill:none"/><path d="M423.2,504.51l.19,4.86h-2.21a4.39,4.39,0,0,0-4.37-4.6,4.25,4.25,0,0,0-4.37,4.23L405,509a4.21,4.21,0,0,0-4.37-4.18,4.37,4.37,0,0,0-4.37,4.58h-3.75l-.18-2.61s-.16-1.94-.16-2.92a5.84,5.84,0,0,1-6-4.67c-.21-2.64,0-7.34,0-7.34,0-4.58,4.49-4.1,4.49-4.1h6.86v-1.35h3.61v.45h2.71v.9h-2.71v.9h2.71V490h-2.71v.13l-3.61,0v-1.05h-6.23a3.57,3.57,0,0,0-3.69,2.85V498a3.6,3.6,0,0,0,3.68,3.28l.83,0V498.1c0-4.73,5-5,5-5h11.77c3,0,6.15,2.89,10.29,6.26C419.21,499.4,423.1,501.88,423.2,504.51Z" transform="translate(-378.8 -473.92)" style="fill:none;stroke:#fff;stroke-miterlimit:10;stroke-width:0.5px"/><path d="M394.16,496.17v2.68l.75.37h7.82v-4.51h-5.52S394.16,494.19,394.16,496.17Z" transform="translate(-378.8 -473.92)" style="fill:#fff"/><path d="M420.32,505.09h2.19s.22-1.8-1-2.26h-1.18Z" transform="translate(-378.8 -473.92)" style="fill:#fff"/><path d="M397.29,516.13" transform="translate(-378.8 -473.92)" style="fill:#fff"/><path d="M404.08,499.22H416.2s-4.76-4.51-5.93-4.51h-6.19Z" transform="translate(-378.8 -473.92)" style="fill:#fff"/></g></g></svg>