<svg id="Layer_1" data-name="Layer 1" xmlns="http://www.w3.org/2000/svg" viewBox="0 0 100.17 71.82"><title>add_portfolio_company</title><g id="g2"><g id="nofillportfolio"><path d="M212.84,505.21C201,505.21,201,516.79,201,516.79v44.75c0,11.34,12.24,11.46,12.24,11.46h66.07c12.22,0,13.61-11.25,13.61-11.25s3.25-19.23,4.19-25.57S287,530.12,287,530.12s-60.06.09-68.51.09-11.24,10.41-11.24,10.41l-5,21.73s2.4-17.63,4.72-29.62,12.45-11.52,12.45-11.52,39.9.08,56.45.08,14.31.54,16.08,1c-2.24-8-10.57-7.76-10.57-7.76s-33.2.21-46.19.21c0,0,.71-9.56-9.68-9.56S212.84,505.21,212.84,505.21Z" transform="translate(-199 -503.18)" style="fill:none;stroke:#536048;stroke-linejoin:round;stroke-width:4px"/><rect x="49.72" y="32.17" width="5.48" height="31.36" rx="2.2" ry="2.2" style="fill:#536048"/><rect x="248.72" y="535.35" width="5.48" height="31.36" rx="2.2" ry="2.2" transform="translate(603.49 -203.62) rotate(90)" style="fill:#536048"/></g></g></svg>