<svg id="Layer_1" data-name="Layer 1" xmlns="http://www.w3.org/2000/svg" viewBox="0 0 22 14"><title>attachments_icon</title><g id="texticons"><g id="links"><path d="M98.65,300" transform="translate(-84 -290)" style="fill:none;stroke:#536048;stroke-miterlimit:10"/><path d="M98.3,296a3.92,3.92,0,0,0-2.11-.46H88.55c-2.1,0-4.05,1.41-4.05,3.51v.32a4.36,4.36,0,0,0,4.05,4.18h7.63a4.14,4.14,0,0,0,3.75-3.26" transform="translate(-84 -290)" style="fill:none;stroke:#536048;stroke-miterlimit:10"/><path d="M100.08,298.93" transform="translate(-84 -290)" style="fill:none;stroke:#536048;stroke-miterlimit:10"/><path d="M99.92,300" transform="translate(-84 -290)" style="fill:none;stroke:#536048;stroke-miterlimit:10"/><path d="M96.41,297.89" transform="translate(-84 -290)" style="fill:none;stroke:#536048;stroke-miterlimit:10"/><path d="M98.27,295.75" transform="translate(-84 -290)" style="fill:none;stroke:#536048;stroke-miterlimit:10"/><path d="M91.65,293.36" transform="translate(-84 -290)" style="fill:none;stroke:#536048;stroke-miterlimit:10"/><path d="M92,297.74a4.15,4.15,0,0,0,2.11.76h7.63a4,4,0,0,0,3.75-4.11v-.32a3.57,3.57,0,0,0-3.75-3.58H94.12a4,4,0,0,0-3.75,3.11" transform="translate(-84 -290)" style="fill:none;stroke:#536048;stroke-miterlimit:10"/><path d="M90.22,294.47" transform="translate(-84 -290)" style="fill:none;stroke:#536048;stroke-miterlimit:10"/><path d="M90.38,293.36" transform="translate(-84 -290)" style="fill:none;stroke:#536048;stroke-miterlimit:10"/><path d="M93.89,295.51" transform="translate(-84 -290)" style="fill:none;stroke:#536048;stroke-miterlimit:10"/><path d="M92,297.65" transform="translate(-84 -290)" style="fill:none;stroke:#536048;stroke-miterlimit:10"/></g></g></svg>