<svg id="Layer_1" data-name="Layer 1" xmlns="http://www.w3.org/2000/svg" xmlns:xlink="http://www.w3.org/1999/xlink" viewBox="0 0 86.38 97.41"><defs><linearGradient id="linear-gradient" x1="21.36" y1="11.26" x2="28.2" y2="11.26" gradientUnits="userSpaceOnUse"><stop offset="0" stop-color="#4b711c"/><stop offset="1" stop-color="#536048"/></linearGradient><linearGradient id="linear-gradient-2" x1="58.7" y1="11.26" x2="65.54" y2="11.26" xlink:href="#linear-gradient"/></defs><title>calendar_icon_setreminders</title><g id="g2"><g id="calendar"><rect x="2" y="12.95" width="82.38" height="82.47" rx="12" ry="12" style="fill:none;stroke:#536048;stroke-miterlimit:10;stroke-width:4px"/><line x1="2.01" y1="29.83" x2="84.01" y2="29.83" style="fill:none;stroke:#536048;stroke-miterlimit:10;stroke-width:4px"/><circle cx="62.12" cy="19.69" r="5.71" style="fill:#536048"/><circle cx="24.78" cy="19.69" r="5.71" style="fill:#536048"/><rect x="21.86" y="0.5" width="5.83" height="21.52" rx="2.92" ry="2.92" style="fill:#efefef;stroke-miterlimit:10;stroke:url(#linear-gradient)"/><rect x="59.2" y="0.5" width="5.83" height="21.52" rx="2.92" ry="2.92" style="fill:#efefef;stroke-miterlimit:10;stroke:url(#linear-gradient-2)"/><circle cx="13.45" cy="42.61" r="6.67" style="fill:none;stroke:#536048;stroke-miterlimit:10;stroke-width:4px"/><circle cx="33.15" cy="42.61" r="6.67" style="fill:none;stroke:#536048;stroke-miterlimit:10;stroke-width:4px"/><circle cx="52.85" cy="42.61" r="6.67" style="fill:none;stroke:#536048;stroke-miterlimit:10;stroke-width:4px"/><circle cx="72.55" cy="42.61" r="6.67" style="fill:none;stroke:#536048;stroke-miterlimit:10;stroke-width:4px"/><circle cx="13.64" cy="62.5" r="6.67" style="fill:none;stroke:#536048;stroke-miterlimit:10;stroke-width:4px"/><circle cx="33.34" cy="62.5" r="6.67" style="fill:none;stroke:#536048;stroke-miterlimit:10;stroke-width:4px"/><circle cx="53.04" cy="62.5" r="6.67" style="fill:none;stroke:#536048;stroke-miterlimit:10;stroke-width:4px"/><circle cx="72.74" cy="62.5" r="6.67" style="fill:none;stroke:#536048;stroke-miterlimit:10;stroke-width:4px"/><circle cx="13.64" cy="81.75" r="6.67" style="fill:none;stroke:#536048;stroke-miterlimit:10;stroke-width:4px"/><circle cx="33.34" cy="81.75" r="6.67" style="fill:none;stroke:#536048;stroke-miterlimit:10;stroke-width:4px"/><circle cx="53.04" cy="81.75" r="6.67" style="fill:none;stroke:#536048;stroke-miterlimit:10;stroke-width:4px"/><circle cx="72.74" cy="81.75" r="6.67" style="fill:none;stroke:#536048;stroke-miterlimit:10;stroke-width:4px"/></g></g></svg>