<svg id="Layer_1" data-name="Layer 1" xmlns="http://www.w3.org/2000/svg" xmlns:xlink="http://www.w3.org/1999/xlink" viewBox="0 0 44.93 44.58"><defs><linearGradient id="linear-gradient" x1="28.67" y1="683.76" x2="70.4" y2="683.76" gradientUnits="userSpaceOnUse"><stop offset="0" stop-color="#4b711c"/><stop offset="1" stop-color="#536048"/></linearGradient><linearGradient id="linear-gradient-2" x1="47.18" y1="674.85" x2="70.42" y2="674.85" gradientTransform="translate(-459.97 239.24) rotate(-45)" xlink:href="#linear-gradient"/><linearGradient id="linear-gradient-3" x1="68.72" y1="662.5" x2="73.6" y2="662.5" gradientTransform="translate(-447.61 244.36) rotate(-45)" xlink:href="#linear-gradient"/><linearGradient id="linear-gradient-4" x1="16.19" y1="26.76" x2="20.08" y2="26.76" xlink:href="#linear-gradient"/></defs><title>compose_icon</title><g id="g1"><g id="compose"><path d="M68.4,674.58v24.91a3.15,3.15,0,0,1-3.14,3.14H33.81a3.15,3.15,0,0,1-3.14-3.14V668a3.15,3.15,0,0,1,3.14-3.14H59" transform="translate(-28.67 -660.06)" style="fill:none;stroke-miterlimit:10;stroke-width:4px;stroke:url(#linear-gradient)"/><rect x="57.07" y="660.15" width="3.45" height="29.41" transform="translate(465.75 -503.97) rotate(45)" style="fill:url(#linear-gradient-2)"/><rect x="69.43" y="660.77" width="3.45" height="3.45" transform="translate(460.63 -516.33) rotate(45)" style="fill:url(#linear-gradient-3)"/><polygon points="17.64 24.85 20.08 27.29 16.19 28.67 17.64 24.85" style="fill:url(#linear-gradient-4)"/></g></g></svg>