<svg id="Layer_1" data-name="Layer 1" xmlns="http://www.w3.org/2000/svg" viewBox="0 0 73.41 73"><title>contact_icon</title><g id="g1"><g id="contact"><g id="contacticon"><line x1="5.25" y1="12" x2="25.25" y2="12" style="fill:none;stroke:#536048;stroke-miterlimit:10;stroke-width:2px"/><path d="M33,442.86" transform="translate(-6.75 -428)" style="fill:none;stroke:#536048;stroke-miterlimit:10;stroke-width:2px"/><path d="M12.59,442.86" transform="translate(-6.75 -428)" style="fill:none;stroke:#536048;stroke-miterlimit:10;stroke-width:2px"/><path d="M33.47,449.16a11.2,11.2,0,0,0,3.33-7.85c0-6.8-6.5-12.32-14.52-12.32S7.75,434.51,7.75,441.32s6.5,12.32,14.52,12.32a16.19,16.19,0,0,0,8.87-2.57L36.8,453Z" transform="translate(-6.75 -428)" style="fill:none;stroke:#536048;stroke-miterlimit:10;stroke-width:2px"/><line x1="5.25" y1="16" x2="12.25" y2="16" style="fill:none;stroke:#536048;stroke-miterlimit:10;stroke-width:2px"/><line x1="14.25" y1="16" x2="25.25" y2="16" style="fill:none;stroke:#536048;stroke-miterlimit:10;stroke-width:2px"/></g><path d="M68.08,481H62.44a16.55,16.55,0,0,0,5.21-12,15.9,15.9,0,1,0-31.81.06A16.41,16.41,0,0,0,41,481H35.92C23.77,481,23,491,23,491v8H78v-8S80.23,481,68.08,481Z" transform="translate(-6.75 -428)" style="fill:none;stroke:#536048;stroke-miterlimit:10;stroke-width:4px"/></g></g></svg>