<svg id="Layer_1" data-name="Layer 1" xmlns="http://www.w3.org/2000/svg" viewBox="0 0 77.05 93.53"><title>create_questionnaire</title><g id="g2"><g id="clipboard"><circle cx="15.95" cy="32.64" r="3.4" style="fill:#536048"/><circle cx="15.95" cy="46.69" r="3.4" style="fill:#536048"/><circle cx="15.95" cy="61.22" r="3.4" style="fill:#536048"/><circle cx="15.95" cy="75.27" r="3.4" style="fill:#536048"/><path d="M138.71,676.06h0Z" transform="translate(-105 -674.47)" style="fill:#536048"/><path d="M152.11,682.37s-8.71.3-8.71-3.68c0,0,.24-2.63-4.68-2.63s-4.68,2.63-4.68,2.63c0,4-8.71,3.68-8.71,3.68s-1.55-.22-1.55,1.86,1.55,1.77,1.55,1.77h26.77s1.55.3,1.55-1.77S152.11,682.37,152.11,682.37Z" transform="translate(-105 -674.47)" style="fill:#536048"/><ellipse cx="33.63" cy="5.83" rx="1.34" ry="1.2" style="fill:#ededed"/><path d="M124.69,688.92c-4.95,0-4.3-3.92-4.3-3.92H107v81h62V685H156.46s.61,4.21-4.41,4.21S124.69,688.92,124.69,688.92Z" transform="translate(-105 -674.47)" style="fill:none;stroke:#536048;stroke-linejoin:round;stroke-width:4px"/><line x1="25" y1="32.53" x2="52" y2="32.53" style="fill:none;stroke:#536048;stroke-linecap:round;stroke-miterlimit:10;stroke-width:4px"/><line x1="25" y1="46.53" x2="52" y2="46.53" style="fill:none;stroke:#536048;stroke-linecap:round;stroke-miterlimit:10;stroke-width:4px"/><line x1="25" y1="61.53" x2="52" y2="61.53" style="fill:none;stroke:#536048;stroke-linecap:round;stroke-miterlimit:10;stroke-width:4px"/><line x1="25" y1="75.53" x2="52" y2="75.53" style="fill:none;stroke:#536048;stroke-linecap:round;stroke-miterlimit:10;stroke-width:4px"/><rect x="62.3" width="4.39" height="25.11" rx="2.2" ry="2.2"/><rect x="167.3" y="674.47" width="4.39" height="25.11" rx="2.2" ry="2.2" transform="translate(751.52 -156.95) rotate(90)"/></g></g></svg>