<svg id="Layer_1" data-name="Layer 1" xmlns="http://www.w3.org/2000/svg" viewBox="0 0 57.04 71.09"><title>edit_account_icon</title><g id="g1"><g id="editprof"><path d="M59,730H32.84c-2.4,0-4.84,1.44-4.84,3.84v46.22A5.34,5.34,0,0,0,32.84,785H63.34c2.4,0,3.66-2.54,3.66-4.94V742" transform="translate(-26 -715.91)" style="fill:none;stroke:#536048;stroke-miterlimit:10;stroke-width:4px"/><polygon points="32.51 14.54 34.11 13.09 32.51 13.09 32.51 14.54" style="fill:#536048"/><polygon points="41.95 24.71 40.49 26.17 41.95 26.17 41.95 24.71" style="fill:#536048"/><polyline points="53.77 4.22 52.46 2.87 50.66 4.62 48.91 2.83 42.63 8.96 47.89 14.34 54.16 8.21 52.41 6.42 54.21 4.67 53.77 4.22" style="fill:none;stroke:#536048;stroke-miterlimit:10;stroke-width:4px"/><polygon points="22.11 39.32 13.17 42.57 16.66 33.85 41.15 10.41 46.52 15.78 22.11 39.32" style="fill:none;stroke:#536048;stroke-miterlimit:10;stroke-width:4px"/></g></g></svg>