<svg id="Layer_1" data-name="Layer 1" xmlns="http://www.w3.org/2000/svg" viewBox="0 0 82.23 91.94"><title>fillout_questionnaire_icon</title><g id="clipboard"><circle cx="15.95" cy="29.05" r="3.4" style="fill:#536048"/><circle cx="15.95" cy="43.1" r="3.4" style="fill:#536048"/><circle cx="15.95" cy="57.62" r="3.4" style="fill:#536048"/><circle cx="15.95" cy="71.68" r="3.4" style="fill:#536048"/><path d="M1271,207" transform="translate(-1194 -198.06)" style="fill:#595959;stroke:#595959;stroke-miterlimit:10;stroke-width:4px"/><polygon points="79.63 22.94 76.96 22.94 76.15 22.94 72.59 22.94 72 22.94 72 26.72 72 78.23 75.85 86.27 79.68 78.41 80.22 22.94 79.63 22.94" style="fill:none;stroke:#536048;stroke-miterlimit:10;stroke-width:4px"/><rect x="71.44" y="15.25" width="9.43" height="5.73" style="fill:#536048"/><rect x="73.44" y="12.25" width="5.21" height="5.73" style="fill:#536048"/><path d="M1227.71,198.06h0Z" transform="translate(-1194 -198.06)" style="fill:#536048"/><path d="M1241.11,204.37s-8.71.3-8.71-3.68c0,0,.24-2.63-4.68-2.63s-4.68,2.63-4.68,2.63c0,4-8.71,3.68-8.71,3.68s-1.55-.22-1.55,1.86,1.55,1.77,1.55,1.77h26.77s1.55.3,1.55-1.77S1241.11,204.37,1241.11,204.37Z" transform="translate(-1194 -198.06)" style="fill:#536048"/><ellipse cx="33.63" cy="4.23" rx="1.34" ry="1.2" style="fill:#ededed"/><path d="M1213.69,210.92c-4.95,0-4.3-3.92-4.3-3.92H1196v81h62V207h-12.54s.61,4.21-4.41,4.21S1213.69,210.92,1213.69,210.92Z" transform="translate(-1194 -198.06)" style="fill:none;stroke:#536048;stroke-linejoin:round;stroke-width:4px"/><line x1="25" y1="28.94" x2="52" y2="28.94" style="fill:none;stroke:#536048;stroke-linecap:round;stroke-miterlimit:10;stroke-width:4px"/><line x1="25" y1="42.94" x2="52" y2="42.94" style="fill:none;stroke:#536048;stroke-linecap:round;stroke-miterlimit:10;stroke-width:4px"/><line x1="25" y1="57.94" x2="52" y2="57.94" style="fill:none;stroke:#536048;stroke-linecap:round;stroke-miterlimit:10;stroke-width:4px"/><line x1="25" y1="71.94" x2="52" y2="71.94" style="fill:none;stroke:#536048;stroke-linecap:round;stroke-miterlimit:10;stroke-width:4px"/></g></svg>