<svg id="Layer_1" data-name="Layer 1" xmlns="http://www.w3.org/2000/svg" viewBox="0 0 124.94 162.67"><title>history_icon</title><g id="g3"><g id="hourglass"><path d="M600.66,478.68H481.94V492h9.72S490,519.92,507,533.66c12.89,9.59,18.93,13.17,18.93,13.17s16.91,10.24,0,21.75-34.23,14.4-34.23,54.34H479.72v14.42H600.66V622.92h-9.84c0-39.94-17.32-42.84-34.23-54.34s0-21.75,0-21.75,6-3.58,18.93-13.17c16.91-13.74,15.3-41.67,15.3-41.67h9.84Z" transform="translate(-477.72 -476.68)" style="fill:none;stroke:#536048;stroke-linejoin:round;stroke-width:4px"/><path d="M545.77,549.43s32.53-21.26,32.53-24.84v-.89H505.77l-.12,0v.92c0,3.33,27.51,21.93,31.38,24.53,2.63,9.73,2.79,30.94,2.72,40.55-13.44.6-23.07,10.31-28.82,18.47l-7.14,3.37v10.94H578.3V611.5l-8.09-3.88c-6-7.89-15.38-17-27.25-17.92-.06-9.54.13-30.6,2.7-40.41Z" transform="translate(-477.72 -476.68)" style="fill:#4b711c"/></g></g></svg>