<svg id="Layer_1" data-name="Layer 1" xmlns="http://www.w3.org/2000/svg" viewBox="0 0 67 63.61"><title>home_icon</title><g id="treehouse"><polygon points="0 31.61 33.88 0 67 31.61 60 31.61 60 63.61 8 63.61 8 31.61 0 31.61" style="fill:#536048"/><path d="M256.74,162" transform="translate(-243.73 -105.43)" style="fill:none;stroke:#90b531;stroke-miterlimit:10"/><path d="M294.52,137.51a38.53,38.53,0,0,1-6,.81,91.59,91.59,0,0,0-11.79,1.47,23.88,23.88,0,0,0-9.89,4.93v0a5.28,5.28,0,0,1-.55.69l-.59,1.14a5.54,5.54,0,0,0,0,.95s-3.54-4.71-8.44-4.71c1.7,10.83,8.41,12.58,8.41,12.58l-.36,7.76-.05,1.26-.52,4.63h4.93l.27-4.62V157c11,2.37,18.8-8.51,18.8-8.51s5.77-6.46,8.74-11.92A10.58,10.58,0,0,1,294.52,137.51Z" transform="translate(-243.73 -105.43)" style="fill:#90b531"/></g></svg>