<svg id="Layer_1" data-name="Layer 1" xmlns="http://www.w3.org/2000/svg" viewBox="0 0 81.7 56.62"><title>leaf2_icon</title><g id="g3"><path d="M357.07,601.55V586.43c22.25,4.81,38.18-17.3,38.18-17.3S407,556,413,544.93a21.5,21.5,0,0,1-6,2c-3.92,1-8.21,1.25-12.16,1.64-8.05.79-16.06,1.16-23.95,3-8.19,1.89-13.81,5.14-20.09,10,0,0,0,0,0,.05a10.72,10.72,0,0,1-1.12,1.41c-.4.77-.8,1.55-1.19,2.33a11.25,11.25,0,0,0,0,1.92s-7.2-9.57-17.14-9.57c3.45,22,17.09,25.55,17.09,25.55L347.66,599" transform="translate(-331.3 -544.93)" style="fill:#90b531"/></g></svg>