<svg id="Layer_1" data-name="Layer 1" xmlns="http://www.w3.org/2000/svg" xmlns:xlink="http://www.w3.org/1999/xlink" viewBox="0 0 63.7 113.61"><defs><linearGradient id="linear-gradient" x1="673.32" y1="582.89" x2="637.2" y2="582.89" gradientUnits="userSpaceOnUse"><stop offset="0" stop-color="#4b711c"/><stop offset="1" stop-color="#536048"/></linearGradient><linearGradient id="linear-gradient-2" x1="673.32" y1="591.92" x2="637.2" y2="591.92" xlink:href="#linear-gradient"/><linearGradient id="linear-gradient-3" x1="673.32" y1="600.95" x2="637.2" y2="600.95" xlink:href="#linear-gradient"/><linearGradient id="linear-gradient-4" x1="676.22" y1="611.87" x2="634.44" y2="611.87" xlink:href="#linear-gradient"/><linearGradient id="linear-gradient-5" x1="686.04" y1="543.08" x2="624.32" y2="543.08" xlink:href="#linear-gradient"/><linearGradient id="linear-gradient-6" x1="667.43" y1="545.02" x2="640.95" y2="545.02" xlink:href="#linear-gradient"/></defs><title>lightbulb_icon</title><g id="g3"><g id="greenenergy"><path d="M637.2,587.39h36.12c5.79,0,5.8-9,0-9H637.2c-5.79,0-5.8,9,0,9Z" transform="translate(-623.34 -505.67)" style="fill:url(#linear-gradient)"/><path d="M637.2,596.42h36.12c5.79,0,5.8-9,0-9H637.2c-5.79,0-5.8,9,0,9Z" transform="translate(-623.34 -505.67)" style="fill:url(#linear-gradient-2)"/><path d="M637.2,605.45h36.12c5.79,0,5.8-9,0-9H637.2c-5.79,0-5.8,9,0,9Z" transform="translate(-623.34 -505.67)" style="fill:url(#linear-gradient-3)"/><path d="M637.2,606s17.31,26.59,36.12,0Z" transform="translate(-623.34 -505.67)" style="fill:none;stroke-miterlimit:10;stroke-width:3px;stroke:url(#linear-gradient-4)"/><path d="M635.36,579a70.24,70.24,0,0,0-.88-13.14c-1-6.3-3.36-11.5-5.74-17.29-3.29-8-3.53-18.14.54-25.92,6-11.43,21-15.28,33-13.61s21.11,10,21.76,22.45c.46,8.95-2.87,17.59-5.75,25.91A58.34,58.34,0,0,0,674.83,579c0,1.93,3,1.93,3,0-.21-8.35,1.47-15.09,4-22.89,2.68-8.18,5.7-16.44,5.12-25.2-.79-11.76-8.41-20.74-19.7-23.88-11.49-3.2-26.23-.95-35.22,7.2-7.52,6.81-9.72,17.34-8.3,27.07.86,5.88,3.64,10.37,5.57,15.87a60.38,60.38,0,0,1,3,21.84c-.07,1.93,2.93,1.93,3,0Z" transform="translate(-623.34 -505.67)" style="fill:url(#linear-gradient-5)"/><path d="M646.57,566.67s-20.4-23.74,20.23-44.14c-.84,5.85,3.68,34.44-9.2,42.3-1.5,1-7,2.84-7,2.84s1.5-25.78,8.69-33.78C653.25,542.26,647.74,549.45,646.57,566.67Z" transform="translate(-623.34 -505.67)" style="fill:none;stroke-miterlimit:10;stroke:url(#linear-gradient-6)"/></g></g></svg>