<svg id="Layer_1" data-name="Layer 1" xmlns="http://www.w3.org/2000/svg" xmlns:xlink="http://www.w3.org/1999/xlink" viewBox="0 0 65.74 62.53"><defs><linearGradient id="linear-gradient" x1="405.06" y1="637.28" x2="405.07" y2="637.28" gradientUnits="userSpaceOnUse"><stop offset="0" stop-color="#4b711c"/><stop offset="1" stop-color="#536048"/></linearGradient></defs><title>logout_icon</title><g id="g3"><g id="logout"><polygon points="20.48 62.53 0 49.71 0 0 20.48 12.83 20.48 62.53" style="fill:#536048"/><polyline points="25.22 58.92 40.56 58.92 40.56 41.32" style="fill:none;stroke:#536048;stroke-linecap:round;stroke-linejoin:round;stroke-width:5px"/><polyline points="40.56 20.12 40.56 3.43 12.59 3.43" style="fill:none;stroke:#536048;stroke-linecap:round;stroke-linejoin:round;stroke-width:5px"/><path d="M390.22,628.3c-4.22-3.62-4.47-1.61-4.47-1.61v6.2H370v9.47h15.79v5.58s.25,2,4.47-1.61c4.75-3.56,10.88-7.77,11.08-9.06C401.1,636,395,631.86,390.22,628.3Z" transform="translate(-339.33 -606)" style="fill:none;stroke:#536048;stroke-miterlimit:10;stroke-width:2px"/><path d="M405.07,637.22a.22.22,0,0,0,0,.13Z" transform="translate(-339.33 -606)" style="fill:url(#linear-gradient)"/></g></g></svg>