<svg id="Layer_1" data-name="Layer 1" xmlns="http://www.w3.org/2000/svg" viewBox="0 0 18.83 15.73"><title>quotes_icon</title><g id="texticons"><g id="doubleapost"><path d="M43.17,291,46,288.79l1,1.1-2.21,2.9s-2.62,2.92.83,6.13a3.53,3.53,0,0,1,.5,3.4,4.11,4.11,0,0,1-6.44,1.13c-3-2.37-.62-7.5-.62-7.5S39.9,293.75,43.17,291Z" transform="translate(-38.17 -288.79)" style="fill:#536048"/><path d="M53.17,291,56,288.79l1,1.1-2.21,2.9s-2.62,2.92.83,6.13a3.53,3.53,0,0,1,.5,3.4,4.11,4.11,0,0,1-6.44,1.13c-3-2.37-.62-7.5-.62-7.5S49.9,293.75,53.17,291Z" transform="translate(-38.17 -288.79)" style="fill:#536048"/></g></g></svg>