<svg id="Layer_1" data-name="Layer 1" xmlns="http://www.w3.org/2000/svg" viewBox="0 0 232.23 112.51"><title>renewal_funds_icon</title><g id="renewal_title"><text transform="translate(0 53.01)" style="font-size:62.078880310058594px;fill:#fff;font-family:Avenir-Black, Avenir"><tspan style="letter-spacing:-0.0179962572523877em">r</tspan><tspan x="24.15" y="0">enewal</tspan></text><text transform="translate(152.29 82.71)" style="font-size:31.039440155029297px;fill:#fbfcfa;font-family:Avenir-Light, Avenir;letter-spacing:-0.03998818700661673em">Funds</text><text transform="translate(49.79 107.98)" style="font-size:18.106340408325195px;fill:#fff;font-family:Avenir-Light, Avenir;letter-spacing:0.03999268087421206em">Inves<tspan x="44.56" y="0" style="letter-spacing:0.04099047533971836em">t</tspan><tspan x="51.33" y="0">ing for Change</tspan></text><g id="a_leaf" data-name="a leaf"><path d="M434.77,37s0-4.5,5.51-5.6,11.79-2.53,12.33-3c.08.63-1,2.86-3.2,5.85s-6,7.79-8.84,7.83a11.5,11.5,0,0,1-3.75-.17c0,1.22,0,4.38,0,4.38l-1.94-.8,0-4.29s-3.58-.59-4.67-7.41C433,34.58,434.35,36,434.77,37Z" transform="translate(-242.73 7.37)" style="fill:#90b531"/><path d="M434.85,45.42v.67a17.71,17.71,0,0,0,1.95.17V46Z" transform="translate(-242.73 7.37)" style="fill:#90b531"/></g></g></svg>