<svg id="Layer_1" data-name="Layer 1" xmlns="http://www.w3.org/2000/svg" viewBox="0 0 66.88 57.51"><title>respond_icon</title><g id="g1"><g id="respond"><path d="M50.85,515.53c-16.1,0-29.15,11-29.15,24.58,0,8.42,5,15.85,12.68,20.28a54.65,54.65,0,0,1-14.12,6.87c8,4.41,20.1-.44,25.4-3a34.52,34.52,0,0,0,5.2.41c16.1,0,29.15-11,29.15-24.58S66.95,515.53,50.85,515.53Z" transform="translate(-15.12 -513.53)" style="fill:none;stroke:#536048;stroke-miterlimit:10;stroke-width:4px"/><path d="M32.94,533.44c-1.81,1.08,0,3,0,3s4.7,4.34,8.46,7.89,3.6,1.1,3.6,1.1v-5s23-1.06,23,14.11c0,0,2-25.82-23-25.82v-4.43s.16-2.46-3.6,1.1-8.45,7.89-8.45,7.89-1.82,1.59,0,2.67" transform="translate(-15.12 -513.53)" style="fill:none;stroke:#536048;stroke-linejoin:round;stroke-width:4px"/></g></g></svg>