<svg id="Layer_1" data-name="Layer 1" xmlns="http://www.w3.org/2000/svg" viewBox="0 0 76.47 91.94"><title>view_responses</title><g id="g2"><g id="viewresponses"><path d="M124.69,593.92c-4.95,0-4.3-3.92-4.3-3.92H107v81h62V590H156.46s.61,4.21-4.41,4.21S124.69,593.92,124.69,593.92Z" transform="translate(-105 -581.06)" style="fill:none;stroke:#536048;stroke-linejoin:round;stroke-width:4px"/><path d="M138.71,581.06h0Z" transform="translate(-105 -581.06)" style="fill:#536048"/><path d="M152.11,587.37s-8.71.3-8.71-3.68c0,0,.24-2.63-4.68-2.63s-4.68,2.63-4.68,2.63c0,4-8.71,3.68-8.71,3.68s-1.55-.22-1.55,1.86,1.55,1.77,1.55,1.77h26.77s1.55.3,1.55-1.77S152.11,587.37,152.11,587.37Z" transform="translate(-105 -581.06)" style="fill:#536048"/><ellipse cx="33.63" cy="4.23" rx="1.34" ry="1.2" style="fill:#ededed"/><circle cx="15.95" cy="31.05" r="3.4" style="fill:#536048"/><circle cx="15.95" cy="45.1" r="3.4" style="fill:#536048"/><circle cx="15.95" cy="59.62" r="3.4" style="fill:#536048"/><circle cx="15.95" cy="73.68" r="3.4" style="fill:#536048"/><rect x="173.76" y="600.39" width="3.37" height="15.65" rx="1.69" ry="1.69" transform="translate(-483.68 -278.86) rotate(-45)" style="fill:#020202"/><circle cx="58.75" cy="15.26" r="9.78" style="fill:none;stroke:#000;stroke-miterlimit:10;stroke-width:3px"/><line x1="26" y1="30.94" x2="53" y2="30.94" style="fill:none;stroke:#536048;stroke-linecap:round;stroke-miterlimit:10;stroke-width:4px"/><line x1="26" y1="44.94" x2="53" y2="44.94" style="fill:none;stroke:#536048;stroke-linecap:round;stroke-miterlimit:10;stroke-width:4px"/><line x1="26" y1="59.94" x2="53" y2="59.94" style="fill:none;stroke:#536048;stroke-linecap:round;stroke-miterlimit:10;stroke-width:4px"/><line x1="26" y1="73.94" x2="53" y2="73.94" style="fill:none;stroke:#536048;stroke-linecap:round;stroke-miterlimit:10;stroke-width:4px"/></g></g></svg>