<svg id="Layer_1" data-name="Layer 1" xmlns="http://www.w3.org/2000/svg" viewBox="0 0 72.5 72.5"><title>view_portfolio_companies</title><g id="g2"><g id="fillportfolio"><circle cx="36.25" cy="36.25" r="34.25" style="fill:none;stroke:#536048;stroke-miterlimit:10;stroke-width:4px"/><path d="M247.11,643h19a3.1,3.1,0,0,0,2.25-2.44c.34-2,3.5-20.9,3.5-20.9s.4-2.1-1.19-2.08-33.15-.06-33.15-.06a2.37,2.37,0,0,0-2.39,1.67c-.69,1.84-1,3.08-5.22,3s-6.06,0-6.06,0-1.41-.13-1.09,1.59,3.51,17.38,3.51,17.38.3,1.83,1.52,1.83Z" transform="translate(-210.21 -588.5)" style="fill:none;stroke:#536048;stroke-miterlimit:10;stroke-width:4px"/><path d="M224.61,616h4s2.78.3,3.19-1.4,1.19-2.6,3.34-2.6H264v-5.25s.73-.75-1-.75H226.61a1.91,1.91,0,0,0-1.9,1.9C224.71,609.73,224.61,616,224.61,616Z" transform="translate(-210.21 -588.5)" style="fill:none;stroke:#536048;stroke-miterlimit:10;stroke-width:4px"/></g></g></svg>